<svg xmlns="http://www.w3.org/2000/svg" width="56.818" height="59.763" viewBox="0 0 56.818 59.763">
  <path id="linkedin" d="M50.769,0H5.049A5.188,5.188,0,0,0,0,5.316V53.447a5.188,5.188,0,0,0,5.049,5.316H50.768a5.188,5.188,0,0,0,5.049-5.316V5.316A5.188,5.188,0,0,0,50.769,0Zm-33.5,50.74A1.51,1.51,0,0,1,15.8,52.287H9.548A1.51,1.51,0,0,1,8.079,50.74v-27.6a1.51,1.51,0,0,1,1.469-1.547H15.8a1.51,1.51,0,0,1,1.469,1.547Zm-4.6-31.752a6.105,6.105,0,0,1-5.942-6.256,6.105,6.105,0,0,1,5.942-6.256,6.105,6.105,0,0,1,5.942,6.256A6.1,6.1,0,0,1,12.676,18.988ZM49.96,50.864a1.388,1.388,0,0,1-1.351,1.422H41.9a1.388,1.388,0,0,1-1.351-1.422V37.917c0-1.932.538-8.464-4.795-8.464-4.136,0-4.976,4.471-5.144,6.478V50.864a1.388,1.388,0,0,1-1.351,1.422H22.765a1.388,1.388,0,0,1-1.351-1.422V23.012a1.388,1.388,0,0,1,1.351-1.422h6.491a1.388,1.388,0,0,1,1.351,1.422V25.42c1.534-2.423,3.813-4.294,8.667-4.294,10.748,0,10.686,10.571,10.686,16.379V50.864Z" transform="translate(0.5 0.5)" fill="#8b4be3" stroke="#707070" stroke-width="1"/>
</svg>
